<svg viewBox="0 0 20 20" xmlns="http://www.w3.org/2000/svg"><g id="Layer_2" data-name="Layer 2"><path d="m1.553 8.9a1 1 0 0 0 1.347-.453l.218-.447h3.764l.223.447a1 1 0 1 0 1.795-.894l-3-6a1.042 1.042 0 0 0 -1.79 0l-3 6a1 1 0 0 0 .443 1.347zm3.447-4.664.882 1.764h-1.764z"></path><path d="m8 17h-3.586l4.293-4.293a1 1 0 0 0 -.707-1.707h-6a1 1 0 0 0 0 2h3.586l-4.293 4.293a1 1 0 0 0 .707 1.707h6a1 1 0 0 0 0-2z"></path><path d="m18.707 14.293a1 1 0 0 0 -1.414 0l-1.293 1.293v-13.586a1 1 0 0 0 -2 0v13.586l-1.293-1.293a1 1 0 0 0 -1.414 1.414l3 3a1 1 0 0 0 1.414 0l3-3a1 1 0 0 0 0-1.414z"></path></g></svg>